<svg width="1911" height="925" viewBox="0 0 1911 925" fill="none" xmlns="http://www.w3.org/2000/svg">
<g filter="url(#filter0_f_1_116)">
<path d="M955.5 624.938C867.829 624.938 783.75 659.765 721.757 721.757C659.765 783.75 624.938 867.829 624.938 955.5C624.938 1043.17 659.765 1127.25 721.757 1189.24C783.75 1251.24 867.829 1286.06 955.5 1286.06C1043.17 1286.06 1127.25 1251.24 1189.24 1189.24C1251.24 1127.25 1286.06 1043.17 1286.06 955.5C1286.06 867.829 1251.24 783.75 1189.24 721.757C1127.25 659.765 1043.17 624.938 955.5 624.938ZM1139 974.528C1134.94 979.878 1129.3 983.825 1122.88 985.815L1070.95 1003.23C1055.09 1008.65 1040.65 1017.58 1028.71 1029.35C1016.85 1041.22 1007.9 1055.68 1002.59 1071.6L984.847 1123.52C982.461 1129.38 978.567 1134.5 973.56 1138.36C968.205 1142.24 961.788 1144.38 955.177 1144.49C948.533 1144.58 942.052 1142.42 936.795 1138.36C931.432 1134.51 927.379 1129.1 925.185 1122.88L908.092 1070.95C902.78 1054.98 893.799 1040.48 881.87 1028.61C869.941 1016.73 855.395 1007.82 839.4 1002.59L787.8 985.493C781.573 983.298 776.17 979.246 772.32 973.882C768.3 968.602 766.145 962.137 766.193 955.5C766.236 948.779 768.378 942.239 772.32 936.795C776.024 931.567 781.353 927.712 787.477 925.83L839.4 908.415C855.45 902.98 870.098 894.059 882.292 882.292C894.225 870.231 903.158 855.525 908.415 839.4L925.83 788.445C927.763 782.343 931.467 776.955 936.472 772.965C941.616 768.622 948.123 766.224 954.855 766.193C961.254 766.083 967.54 767.879 972.915 771.352C978.59 774.881 982.909 780.222 985.17 786.51L1002.59 839.078C1008 855.299 1017.03 870.07 1029.03 882.292C1041.15 893.993 1055.68 902.908 1071.6 908.415L1123.52 926.475C1129.69 928.441 1135.03 932.414 1138.68 937.762C1142.44 943.155 1144.47 949.569 1144.49 956.145C1144.45 962.66 1142.55 969.045 1139 974.528Z" fill="white"/>
</g>
<defs>
<filter id="filter0_f_1_116" x="0.9375" y="0.9375" width="1909.12" height="1909.12" filterUnits="userSpaceOnUse" color-interpolation-filters="sRGB">
<feFlood flood-opacity="0" result="BackgroundImageFix"/>
<feBlend mode="normal" in="SourceGraphic" in2="BackgroundImageFix" result="shape"/>
<feGaussianBlur stdDeviation="312" result="effect1_foregroundBlur_1_116"/>
</filter>
</defs>
</svg>
